<svg xmlns="http://www.w3.org/2000/svg" viewBox="0 0 141.73 58.18"><path d="M71.48 13.53c0-4 2.35-7 6.15-7s6.21 2.81 6.21 6.86v16.14c0 3.75-1.52 7.27-6.5 7.27h-1.58v6.44h1.58c4.63 0 7.15-1.64 11.07-5.57L115.07 11v23.22c0 6.56 3.87 9.31 8.26 9.31 3 0 4.81-1.05 7.56-3.81l10.84-10.83-4.45-4.22-11 10.84c-1.46 1.4-2.11 1.64-2.69 1.64a2.31 2.31 0 01-2.29-2.58V3.87c0-2-1-3.58-3.1-3.58-.88 0-1.64.3-3.17 1.82l-25 25V12.42A12.48 12.48 0 0077.63 0c-3.75 0-6.38 1.23-10.13 5L38.2 34.28c-2.17 2.16-3.4 2.87-5.51 2.87A6.18 6.18 0 0126.6 31l17.64-17.7a3.27 3.27 0 00.93-2.69A12.58 12.58 0 0032.81 0c-3.4 0-6.21.94-10.31 5L0 27.6 4.45 32l15.88-15.89v14c0 8.2 5.45 13.24 12.48 13.24 4 0 6.45-1.29 10-4.87l22.4-22.37v42.07h6.27zM26.6 22.15v-9.73a6.21 6.21 0 016.21-6.21 6.36 6.36 0 015.8 3.93z" fill="#fff"/></svg>